<svg width="24" height="25" viewBox="0 0 24 25" fill="none" xmlns="http://www.w3.org/2000/svg">
<g clip-path="url(#clip0_2_178)">
<path d="M12 2.80029C6.5 2.80029 2 7.30029 2 12.8003C2 17.8003 5.7 21.9003 10.4 22.7003V15.7003H7.9V12.8003H10.4V10.6003C10.4 8.10029 11.9 6.70029 14.2 6.70029C15.3 6.70029 16.4 6.90029 16.4 6.90029V9.40029H15.1C13.9 9.40029 13.5 10.2003 13.5 11.0003V12.8003H16.3L15.9 15.7003H13.6V22.7003C18.3 21.9003 22 17.8003 22 12.8003C22 7.30029 17.5 2.80029 12 2.80029Z" fill="white"/>
</g>
<defs>
<clipPath id="clip0_2_178">
<rect width="24" height="24" fill="white" transform="translate(0 0.800293)"/>
</clipPath>
</defs>
</svg>
