<svg width="700" height="63" viewBox="0 0 700 63" fill="none" xmlns="http://www.w3.org/2000/svg">
<path d="M163.002 23.454V36H161.364V30.312H154.974V36H153.336V23.454H154.974V28.962H161.364V23.454H163.002ZM170.101 36.162C169.177 36.162 168.337 35.952 167.581 35.532C166.837 35.112 166.249 34.518 165.817 33.75C165.397 32.97 165.187 32.07 165.187 31.05C165.187 30.042 165.403 29.154 165.835 28.386C166.279 27.606 166.879 27.012 167.635 26.604C168.391 26.184 169.237 25.974 170.173 25.974C171.109 25.974 171.955 26.184 172.711 26.604C173.467 27.012 174.061 27.6 174.493 28.368C174.937 29.136 175.159 30.03 175.159 31.05C175.159 32.07 174.931 32.97 174.475 33.75C174.031 34.518 173.425 35.112 172.657 35.532C171.889 35.952 171.037 36.162 170.101 36.162ZM170.101 34.722C170.689 34.722 171.241 34.584 171.757 34.308C172.273 34.032 172.687 33.618 172.999 33.066C173.323 32.514 173.485 31.842 173.485 31.05C173.485 30.258 173.329 29.586 173.017 29.034C172.705 28.482 172.297 28.074 171.793 27.81C171.289 27.534 170.743 27.396 170.155 27.396C169.555 27.396 169.003 27.534 168.499 27.81C168.007 28.074 167.611 28.482 167.311 29.034C167.011 29.586 166.861 30.258 166.861 31.05C166.861 31.854 167.005 32.532 167.293 33.084C167.593 33.636 167.989 34.05 168.481 34.326C168.973 34.59 169.513 34.722 170.101 34.722ZM189.175 25.956C189.943 25.956 190.627 26.118 191.227 26.442C191.827 26.754 192.301 27.228 192.649 27.864C192.997 28.5 193.171 29.274 193.171 30.186V36H191.551V30.42C191.551 29.436 191.305 28.686 190.813 28.17C190.333 27.642 189.679 27.378 188.851 27.378C187.999 27.378 187.321 27.654 186.817 28.206C186.313 28.746 186.061 29.532 186.061 30.564V36H184.441V30.42C184.441 29.436 184.195 28.686 183.703 28.17C183.223 27.642 182.569 27.378 181.741 27.378C180.889 27.378 180.211 27.654 179.707 28.206C179.203 28.746 178.951 29.532 178.951 30.564V36H177.313V26.136H178.951V27.558C179.275 27.042 179.707 26.646 180.247 26.37C180.799 26.094 181.405 25.956 182.065 25.956C182.893 25.956 183.625 26.142 184.261 26.514C184.897 26.886 185.371 27.432 185.683 28.152C185.959 27.456 186.415 26.916 187.051 26.532C187.687 26.148 188.395 25.956 189.175 25.956ZM204.857 30.69C204.857 31.002 204.839 31.332 204.803 31.68H196.919C196.979 32.652 197.309 33.414 197.909 33.966C198.521 34.506 199.259 34.776 200.123 34.776C200.831 34.776 201.419 34.614 201.887 34.29C202.367 33.954 202.703 33.51 202.895 32.958H204.659C204.395 33.906 203.867 34.68 203.075 35.28C202.283 35.868 201.299 36.162 200.123 36.162C199.187 36.162 198.347 35.952 197.603 35.532C196.871 35.112 196.295 34.518 195.875 33.75C195.455 32.97 195.245 32.07 195.245 31.05C195.245 30.03 195.449 29.136 195.857 28.368C196.265 27.6 196.835 27.012 197.567 26.604C198.311 26.184 199.163 25.974 200.123 25.974C201.059 25.974 201.887 26.178 202.607 26.586C203.327 26.994 203.879 27.558 204.263 28.278C204.659 28.986 204.857 29.79 204.857 30.69ZM203.165 30.348C203.165 29.724 203.027 29.19 202.751 28.746C202.475 28.29 202.097 27.948 201.617 27.72C201.149 27.48 200.627 27.36 200.051 27.36C199.223 27.36 198.515 27.624 197.927 28.152C197.351 28.68 197.021 29.412 196.937 30.348H203.165Z" fill="#2292B1"/>
<path d="M253.748 23.454V24.786H250.328V36H248.69V24.786H245.252V23.454H253.748ZM264.764 30.69C264.764 31.002 264.746 31.332 264.71 31.68H256.826C256.886 32.652 257.216 33.414 257.816 33.966C258.428 34.506 259.166 34.776 260.03 34.776C260.738 34.776 261.326 34.614 261.794 34.29C262.274 33.954 262.61 33.51 262.802 32.958H264.566C264.302 33.906 263.774 34.68 262.982 35.28C262.19 35.868 261.206 36.162 260.03 36.162C259.094 36.162 258.254 35.952 257.51 35.532C256.778 35.112 256.202 34.518 255.782 33.75C255.362 32.97 255.152 32.07 255.152 31.05C255.152 30.03 255.356 29.136 255.764 28.368C256.172 27.6 256.742 27.012 257.474 26.604C258.218 26.184 259.07 25.974 260.03 25.974C260.966 25.974 261.794 26.178 262.514 26.586C263.234 26.994 263.786 27.558 264.17 28.278C264.566 28.986 264.764 29.79 264.764 30.69ZM263.072 30.348C263.072 29.724 262.934 29.19 262.658 28.746C262.382 28.29 262.004 27.948 261.524 27.72C261.056 27.48 260.534 27.36 259.958 27.36C259.13 27.36 258.422 27.624 257.834 28.152C257.258 28.68 256.928 29.412 256.844 30.348H263.072ZM278.788 25.956C279.556 25.956 280.24 26.118 280.84 26.442C281.44 26.754 281.914 27.228 282.262 27.864C282.61 28.5 282.784 29.274 282.784 30.186V36H281.164V30.42C281.164 29.436 280.918 28.686 280.426 28.17C279.946 27.642 279.292 27.378 278.464 27.378C277.612 27.378 276.934 27.654 276.43 28.206C275.926 28.746 275.674 29.532 275.674 30.564V36H274.054V30.42C274.054 29.436 273.808 28.686 273.316 28.17C272.836 27.642 272.182 27.378 271.354 27.378C270.502 27.378 269.824 27.654 269.32 28.206C268.816 28.746 268.564 29.532 268.564 30.564V36H266.926V26.136H268.564V27.558C268.888 27.042 269.32 26.646 269.86 26.37C270.412 26.094 271.018 25.956 271.678 25.956C272.506 25.956 273.238 26.142 273.874 26.514C274.51 26.886 274.984 27.432 275.296 28.152C275.572 27.456 276.028 26.916 276.664 26.532C277.3 26.148 278.008 25.956 278.788 25.956ZM287.109 27.954C287.433 27.39 287.913 26.922 288.549 26.55C289.197 26.166 289.947 25.974 290.799 25.974C291.675 25.974 292.467 26.184 293.175 26.604C293.895 27.024 294.459 27.618 294.867 28.386C295.275 29.142 295.479 30.024 295.479 31.032C295.479 32.028 295.275 32.916 294.867 33.696C294.459 34.476 293.895 35.082 293.175 35.514C292.467 35.946 291.675 36.162 290.799 36.162C289.959 36.162 289.215 35.976 288.567 35.604C287.931 35.22 287.445 34.746 287.109 34.182V40.68H285.471V26.136H287.109V27.954ZM293.805 31.032C293.805 30.288 293.655 29.64 293.355 29.088C293.055 28.536 292.647 28.116 292.131 27.828C291.627 27.54 291.069 27.396 290.457 27.396C289.857 27.396 289.299 27.546 288.783 27.846C288.279 28.134 287.871 28.56 287.559 29.124C287.259 29.676 287.109 30.318 287.109 31.05C287.109 31.794 287.259 32.448 287.559 33.012C287.871 33.564 288.279 33.99 288.783 34.29C289.299 34.578 289.857 34.722 290.457 34.722C291.069 34.722 291.627 34.578 292.131 34.29C292.647 33.99 293.055 33.564 293.355 33.012C293.655 32.448 293.805 31.788 293.805 31.032ZM299.273 22.68V36H297.635V22.68H299.273ZM301.453 31.032C301.453 30.024 301.657 29.142 302.065 28.386C302.473 27.618 303.031 27.024 303.739 26.604C304.459 26.184 305.257 25.974 306.133 25.974C306.997 25.974 307.747 26.16 308.383 26.532C309.019 26.904 309.493 27.372 309.805 27.936V26.136H311.461V36H309.805V34.164C309.481 34.74 308.995 35.22 308.347 35.604C307.711 35.976 306.967 36.162 306.115 36.162C305.239 36.162 304.447 35.946 303.739 35.514C303.031 35.082 302.473 34.476 302.065 33.696C301.657 32.916 301.453 32.028 301.453 31.032ZM309.805 31.05C309.805 30.306 309.655 29.658 309.355 29.106C309.055 28.554 308.647 28.134 308.131 27.846C307.627 27.546 307.069 27.396 306.457 27.396C305.845 27.396 305.287 27.54 304.783 27.828C304.279 28.116 303.877 28.536 303.577 29.088C303.277 29.64 303.127 30.288 303.127 31.032C303.127 31.788 303.277 32.448 303.577 33.012C303.877 33.564 304.279 33.99 304.783 34.29C305.287 34.578 305.845 34.722 306.457 34.722C307.069 34.722 307.627 34.578 308.131 34.29C308.647 33.99 309.055 33.564 309.355 33.012C309.655 32.448 309.805 31.794 309.805 31.05ZM316.227 27.486V33.3C316.227 33.78 316.329 34.122 316.533 34.326C316.737 34.518 317.091 34.614 317.595 34.614H318.801V36H317.325C316.413 36 315.729 35.79 315.273 35.37C314.817 34.95 314.589 34.26 314.589 33.3V27.486H313.311V26.136H314.589V23.652H316.227V26.136H318.801V27.486H316.227ZM329.786 30.69C329.786 31.002 329.768 31.332 329.732 31.68H321.848C321.908 32.652 322.238 33.414 322.838 33.966C323.45 34.506 324.188 34.776 325.052 34.776C325.76 34.776 326.348 34.614 326.816 34.29C327.296 33.954 327.632 33.51 327.824 32.958H329.588C329.324 33.906 328.796 34.68 328.004 35.28C327.212 35.868 326.228 36.162 325.052 36.162C324.116 36.162 323.276 35.952 322.532 35.532C321.8 35.112 321.224 34.518 320.804 33.75C320.384 32.97 320.174 32.07 320.174 31.05C320.174 30.03 320.378 29.136 320.786 28.368C321.194 27.6 321.764 27.012 322.496 26.604C323.24 26.184 324.092 25.974 325.052 25.974C325.988 25.974 326.816 26.178 327.536 26.586C328.256 26.994 328.808 27.558 329.192 28.278C329.588 28.986 329.786 29.79 329.786 30.69ZM328.094 30.348C328.094 29.724 327.956 29.19 327.68 28.746C327.404 28.29 327.026 27.948 326.546 27.72C326.078 27.48 325.556 27.36 324.98 27.36C324.152 27.36 323.444 27.624 322.856 28.152C322.28 28.68 321.95 29.412 321.866 30.348H328.094ZM335.44 36.162C334.684 36.162 334.006 36.036 333.406 35.784C332.806 35.52 332.332 35.16 331.984 34.704C331.636 34.236 331.444 33.702 331.408 33.102H333.1C333.148 33.594 333.376 33.996 333.784 34.308C334.204 34.62 334.75 34.776 335.422 34.776C336.046 34.776 336.538 34.638 336.898 34.362C337.258 34.086 337.438 33.738 337.438 33.318C337.438 32.886 337.246 32.568 336.862 32.364C336.478 32.148 335.884 31.938 335.08 31.734C334.348 31.542 333.748 31.35 333.28 31.158C332.824 30.954 332.428 30.66 332.092 30.276C331.768 29.88 331.606 29.364 331.606 28.728C331.606 28.224 331.756 27.762 332.056 27.342C332.356 26.922 332.782 26.592 333.334 26.352C333.886 26.1 334.516 25.974 335.224 25.974C336.316 25.974 337.198 26.25 337.87 26.802C338.542 27.354 338.902 28.11 338.95 29.07H337.312C337.276 28.554 337.066 28.14 336.682 27.828C336.31 27.516 335.806 27.36 335.17 27.36C334.582 27.36 334.114 27.486 333.766 27.738C333.418 27.99 333.244 28.32 333.244 28.728C333.244 29.052 333.346 29.322 333.55 29.538C333.766 29.742 334.03 29.91 334.342 30.042C334.666 30.162 335.11 30.3 335.674 30.456C336.382 30.648 336.958 30.84 337.402 31.032C337.846 31.212 338.224 31.488 338.536 31.86C338.86 32.232 339.028 32.718 339.04 33.318C339.04 33.858 338.89 34.344 338.59 34.776C338.29 35.208 337.864 35.55 337.312 35.802C336.772 36.042 336.148 36.162 335.44 36.162Z" fill="#ABADB3"/>
<g clip-path="url(#clip0_2_9)">
<path d="M350.3 28.7L354.35 32.3L358.4 28.7" stroke="#ABADB3" stroke-width="1.34961"/>
</g>
<path d="M404.418 29.538C404.874 29.61 405.288 29.796 405.66 30.096C406.044 30.396 406.344 30.768 406.56 31.212C406.788 31.656 406.902 32.13 406.902 32.634C406.902 33.27 406.74 33.846 406.416 34.362C406.092 34.866 405.618 35.268 404.994 35.568C404.382 35.856 403.656 36 402.816 36H398.136V23.454H402.636C403.488 23.454 404.214 23.598 404.814 23.886C405.414 24.162 405.864 24.54 406.164 25.02C406.464 25.5 406.614 26.04 406.614 26.64C406.614 27.384 406.41 28.002 406.002 28.494C405.606 28.974 405.078 29.322 404.418 29.538ZM399.774 28.872H402.528C403.296 28.872 403.89 28.692 404.31 28.332C404.73 27.972 404.94 27.474 404.94 26.838C404.94 26.202 404.73 25.704 404.31 25.344C403.89 24.984 403.284 24.804 402.492 24.804H399.774V28.872ZM402.672 34.65C403.488 34.65 404.124 34.458 404.58 34.074C405.036 33.69 405.264 33.156 405.264 32.472C405.264 31.776 405.024 31.23 404.544 30.834C404.064 30.426 403.422 30.222 402.618 30.222H399.774V34.65H402.672ZM410.813 22.68V36H409.175V22.68H410.813ZM417.907 36.162C416.983 36.162 416.143 35.952 415.387 35.532C414.643 35.112 414.055 34.518 413.623 33.75C413.203 32.97 412.993 32.07 412.993 31.05C412.993 30.042 413.209 29.154 413.641 28.386C414.085 27.606 414.685 27.012 415.441 26.604C416.197 26.184 417.043 25.974 417.979 25.974C418.915 25.974 419.761 26.184 420.517 26.604C421.273 27.012 421.867 27.6 422.299 28.368C422.743 29.136 422.965 30.03 422.965 31.05C422.965 32.07 422.737 32.97 422.281 33.75C421.837 34.518 421.231 35.112 420.463 35.532C419.695 35.952 418.843 36.162 417.907 36.162ZM417.907 34.722C418.495 34.722 419.047 34.584 419.563 34.308C420.079 34.032 420.493 33.618 420.805 33.066C421.129 32.514 421.291 31.842 421.291 31.05C421.291 30.258 421.135 29.586 420.823 29.034C420.511 28.482 420.103 28.074 419.599 27.81C419.095 27.534 418.549 27.396 417.961 27.396C417.361 27.396 416.809 27.534 416.305 27.81C415.813 28.074 415.417 28.482 415.117 29.034C414.817 29.586 414.667 30.258 414.667 31.05C414.667 31.854 414.811 32.532 415.099 33.084C415.399 33.636 415.795 34.05 416.287 34.326C416.779 34.59 417.319 34.722 417.907 34.722ZM429.186 25.974C430.038 25.974 430.782 26.16 431.418 26.532C432.066 26.904 432.546 27.372 432.858 27.936V26.136H434.514V36.216C434.514 37.116 434.322 37.914 433.938 38.61C433.554 39.318 433.002 39.87 432.282 40.266C431.574 40.662 430.746 40.86 429.798 40.86C428.502 40.86 427.422 40.554 426.558 39.942C425.694 39.33 425.184 38.496 425.028 37.44H426.648C426.828 38.04 427.2 38.52 427.764 38.88C428.328 39.252 429.006 39.438 429.798 39.438C430.698 39.438 431.43 39.156 431.994 38.592C432.57 38.028 432.858 37.236 432.858 36.216V34.146C432.534 34.722 432.054 35.202 431.418 35.586C430.782 35.97 430.038 36.162 429.186 36.162C428.31 36.162 427.512 35.946 426.792 35.514C426.084 35.082 425.526 34.476 425.118 33.696C424.71 32.916 424.506 32.028 424.506 31.032C424.506 30.024 424.71 29.142 425.118 28.386C425.526 27.618 426.084 27.024 426.792 26.604C427.512 26.184 428.31 25.974 429.186 25.974ZM432.858 31.05C432.858 30.306 432.708 29.658 432.408 29.106C432.108 28.554 431.7 28.134 431.184 27.846C430.68 27.546 430.122 27.396 429.51 27.396C428.898 27.396 428.34 27.54 427.836 27.828C427.332 28.116 426.93 28.536 426.63 29.088C426.33 29.64 426.18 30.288 426.18 31.032C426.18 31.788 426.33 32.448 426.63 33.012C426.93 33.564 427.332 33.99 427.836 34.29C428.34 34.578 428.898 34.722 429.51 34.722C430.122 34.722 430.68 34.578 431.184 34.29C431.7 33.99 432.108 33.564 432.408 33.012C432.708 32.448 432.858 31.794 432.858 31.05Z" fill="#ABADB3"/>
<path d="M475.684 29.718C475.684 28.494 475.96 27.396 476.512 26.424C477.064 25.44 477.814 24.672 478.762 24.12C479.722 23.568 480.784 23.292 481.948 23.292C483.316 23.292 484.51 23.622 485.53 24.282C486.55 24.942 487.294 25.878 487.762 27.09H485.8C485.452 26.334 484.948 25.752 484.288 25.344C483.64 24.936 482.86 24.732 481.948 24.732C481.072 24.732 480.286 24.936 479.59 25.344C478.894 25.752 478.348 26.334 477.952 27.09C477.556 27.834 477.358 28.71 477.358 29.718C477.358 30.714 477.556 31.59 477.952 32.346C478.348 33.09 478.894 33.666 479.59 34.074C480.286 34.482 481.072 34.686 481.948 34.686C482.86 34.686 483.64 34.488 484.288 34.092C484.948 33.684 485.452 33.102 485.8 32.346H487.762C487.294 33.546 486.55 34.476 485.53 35.136C484.51 35.784 483.316 36.108 481.948 36.108C480.784 36.108 479.722 35.838 478.762 35.298C477.814 34.746 477.064 33.984 476.512 33.012C475.96 32.04 475.684 30.942 475.684 29.718ZM494.502 36.162C493.578 36.162 492.738 35.952 491.982 35.532C491.238 35.112 490.65 34.518 490.218 33.75C489.798 32.97 489.588 32.07 489.588 31.05C489.588 30.042 489.804 29.154 490.236 28.386C490.68 27.606 491.28 27.012 492.036 26.604C492.792 26.184 493.638 25.974 494.574 25.974C495.51 25.974 496.356 26.184 497.112 26.604C497.868 27.012 498.462 27.6 498.894 28.368C499.338 29.136 499.56 30.03 499.56 31.05C499.56 32.07 499.332 32.97 498.876 33.75C498.432 34.518 497.826 35.112 497.058 35.532C496.29 35.952 495.438 36.162 494.502 36.162ZM494.502 34.722C495.09 34.722 495.642 34.584 496.158 34.308C496.674 34.032 497.088 33.618 497.4 33.066C497.724 32.514 497.886 31.842 497.886 31.05C497.886 30.258 497.73 29.586 497.418 29.034C497.106 28.482 496.698 28.074 496.194 27.81C495.69 27.534 495.144 27.396 494.556 27.396C493.956 27.396 493.404 27.534 492.9 27.81C492.408 28.074 492.012 28.482 491.712 29.034C491.412 29.586 491.262 30.258 491.262 31.05C491.262 31.854 491.406 32.532 491.694 33.084C491.994 33.636 492.39 34.05 492.882 34.326C493.374 34.59 493.914 34.722 494.502 34.722ZM506.52 25.956C507.72 25.956 508.692 26.322 509.436 27.054C510.18 27.774 510.552 28.818 510.552 30.186V36H508.932V30.42C508.932 29.436 508.686 28.686 508.194 28.17C507.702 27.642 507.03 27.378 506.178 27.378C505.314 27.378 504.624 27.648 504.108 28.188C503.604 28.728 503.352 29.514 503.352 30.546V36H501.714V26.136H503.352V27.54C503.676 27.036 504.114 26.646 504.666 26.37C505.23 26.094 505.848 25.956 506.52 25.956ZM515.226 27.486V33.3C515.226 33.78 515.328 34.122 515.532 34.326C515.736 34.518 516.09 34.614 516.594 34.614H517.8V36H516.324C515.412 36 514.728 35.79 514.272 35.37C513.816 34.95 513.588 34.26 513.588 33.3V27.486H512.31V26.136H513.588V23.652H515.226V26.136H517.8V27.486H515.226ZM519.172 31.032C519.172 30.024 519.376 29.142 519.784 28.386C520.192 27.618 520.75 27.024 521.458 26.604C522.178 26.184 522.976 25.974 523.852 25.974C524.716 25.974 525.466 26.16 526.102 26.532C526.738 26.904 527.212 27.372 527.524 27.936V26.136H529.18V36H527.524V34.164C527.2 34.74 526.714 35.22 526.066 35.604C525.43 35.976 524.686 36.162 523.834 36.162C522.958 36.162 522.166 35.946 521.458 35.514C520.75 35.082 520.192 34.476 519.784 33.696C519.376 32.916 519.172 32.028 519.172 31.032ZM527.524 31.05C527.524 30.306 527.374 29.658 527.074 29.106C526.774 28.554 526.366 28.134 525.85 27.846C525.346 27.546 524.788 27.396 524.176 27.396C523.564 27.396 523.006 27.54 522.502 27.828C521.998 28.116 521.596 28.536 521.296 29.088C520.996 29.64 520.846 30.288 520.846 31.032C520.846 31.788 520.996 32.448 521.296 33.012C521.596 33.564 521.998 33.99 522.502 34.29C523.006 34.578 523.564 34.722 524.176 34.722C524.788 34.722 525.346 34.578 525.85 34.29C526.366 33.99 526.774 33.564 527.074 33.012C527.374 32.448 527.524 31.794 527.524 31.05ZM531.336 31.05C531.336 30.03 531.54 29.142 531.948 28.386C532.356 27.618 532.92 27.024 533.64 26.604C534.372 26.184 535.206 25.974 536.142 25.974C537.354 25.974 538.35 26.268 539.13 26.856C539.922 27.444 540.444 28.26 540.696 29.304H538.932C538.764 28.704 538.434 28.23 537.942 27.882C537.462 27.534 536.862 27.36 536.142 27.36C535.206 27.36 534.45 27.684 533.874 28.332C533.298 28.968 533.01 29.874 533.01 31.05C533.01 32.238 533.298 33.156 533.874 33.804C534.45 34.452 535.206 34.776 536.142 34.776C536.862 34.776 537.462 34.608 537.942 34.272C538.422 33.936 538.752 33.456 538.932 32.832H540.696C540.432 33.84 539.904 34.65 539.112 35.262C538.32 35.862 537.33 36.162 536.142 36.162C535.206 36.162 534.372 35.952 533.64 35.532C532.92 35.112 532.356 34.518 531.948 33.75C531.54 32.982 531.336 32.082 531.336 31.05ZM544.88 27.486V33.3C544.88 33.78 544.982 34.122 545.186 34.326C545.39 34.518 545.744 34.614 546.248 34.614H547.454V36H545.978C545.066 36 544.382 35.79 543.926 35.37C543.47 34.95 543.242 34.26 543.242 33.3V27.486H541.964V26.136H543.242V23.652H544.88V26.136H547.454V27.486H544.88Z" fill="#ABADB3"/>
<defs>
<clipPath id="clip0_2_9">
<rect width="10.8" height="10.8" fill="white" transform="translate(348.95 25.1)"/>
</clipPath>
</defs>
</svg>
