<svg width="38" height="39" viewBox="0 0 38 39" fill="none" xmlns="http://www.w3.org/2000/svg">
<g clip-path="url(#clip0_2_191)">
<path d="M26.7 10.8003H11.3C10.582 10.8003 10 11.3823 10 12.1003V27.5003C10 28.2183 10.582 28.8003 11.3 28.8003H26.7C27.418 28.8003 28 28.2183 28 27.5003V12.1003C28 11.3823 27.418 10.8003 26.7 10.8003ZM15.339 26.1383H12.667V17.5483H15.339V26.1383ZM14.004 16.3743C13.147 16.3743 12.455 15.6803 12.455 14.8263C12.455 13.9713 13.146 13.2783 14.004 13.2783C14.858 13.2783 15.551 13.9723 15.551 14.8263C15.551 15.6813 14.858 16.3743 14.004 16.3743ZM25.339 26.1383H22.67V21.9613C22.67 20.9653 22.653 19.6833 21.283 19.6833C19.894 19.6833 19.682 20.7693 19.682 21.8893V26.1383H17.015V17.5483H19.574V18.7223H19.611C19.967 18.0473 20.838 17.3353 22.137 17.3353C24.84 17.3353 25.34 19.1143 25.34 21.4273L25.339 26.1383Z" fill="white"/>
</g>
<defs>
<clipPath id="clip0_2_191">
<rect width="24" height="24" fill="white" transform="translate(7 7.80029)"/>
</clipPath>
</defs>
</svg>
