<svg width="38" height="39" viewBox="0 0 38 39" fill="none" xmlns="http://www.w3.org/2000/svg">
<g clip-path="url(#clip0_2_184)">
<path d="M29.23 13.7243C28.494 14.0503 27.703 14.2713 26.873 14.3703C27.72 13.8623 28.371 13.0583 28.677 12.1003C27.884 12.5703 27.006 12.9123 26.071 13.0963C25.324 12.2983 24.257 11.8003 23.077 11.8003C20.811 11.8003 18.974 13.6373 18.974 15.9033C18.974 16.2253 19.01 16.5383 19.08 16.8383C15.67 16.6673 12.647 15.0343 10.623 12.5513C10.27 13.1573 10.067 13.8623 10.067 14.6143C10.067 16.0383 10.791 17.2933 11.892 18.0293C11.219 18.0083 10.587 17.8233 10.033 17.5163C10.033 17.5333 10.033 17.5503 10.033 17.5683C10.033 19.5563 11.447 21.2153 13.325 21.5913C12.981 21.6853 12.618 21.7353 12.244 21.7353C11.98 21.7353 11.723 21.7093 11.472 21.6613C11.994 23.2913 13.51 24.4773 15.305 24.5113C13.901 25.6113 12.131 26.2673 10.209 26.2673C9.87798 26.2673 9.55098 26.2483 9.22998 26.2103C11.046 27.3743 13.203 28.0533 15.52 28.0533C23.067 28.0533 27.195 21.8013 27.195 16.3783C27.195 16.2003 27.191 16.0233 27.183 15.8473C27.985 15.2703 28.68 14.5473 29.23 13.7243Z" fill="white"/>
</g>
<g clip-path="url(#clip1_2_184)">
<path d="M17.2348 10.5723V12.3483H12.6748V27.3003H10.4908V12.3483H5.90678V10.5723H17.2348ZM37.4432 14.1483L33.3392 27.3003H31.0832L27.9152 16.8603L24.7472 27.3003H22.4912L18.3632 14.1483H20.5952L23.6192 25.1883L26.8832 14.1483H29.1152L32.3072 25.2123L35.2832 14.1483H37.4432ZM40.7387 12.0123C40.3227 12.0123 39.9707 11.8683 39.6827 11.5803C39.3947 11.2923 39.2507 10.9403 39.2507 10.5243C39.2507 10.1083 39.3947 9.75629 39.6827 9.46829C39.9707 9.18029 40.3227 9.03629 40.7387 9.03629C41.1387 9.03629 41.4747 9.18029 41.7467 9.46829C42.0347 9.75629 42.1787 10.1083 42.1787 10.5243C42.1787 10.9403 42.0347 11.2923 41.7467 11.5803C41.4747 11.8683 41.1387 12.0123 40.7387 12.0123ZM41.7947 14.1483V27.3003H39.6107V14.1483H41.7947ZM48.1809 15.9483V23.7003C48.1809 24.3403 48.3169 24.7963 48.5889 25.0683C48.8609 25.3243 49.3329 25.4523 50.0049 25.4523H51.6129V27.3003H49.6449C48.4289 27.3003 47.5169 27.0203 46.9089 26.4603C46.3009 25.9003 45.9969 24.9803 45.9969 23.7003V15.9483H44.2929V14.1483H45.9969V10.8363H48.1809V14.1483H51.6129V15.9483H48.1809ZM56.9231 15.9483V23.7003C56.9231 24.3403 57.0591 24.7963 57.3311 25.0683C57.6031 25.3243 58.0751 25.4523 58.7471 25.4523H60.3551V27.3003H58.3871C57.1711 27.3003 56.2591 27.0203 55.6511 26.4603C55.0431 25.9003 54.7391 24.9803 54.7391 23.7003V15.9483H53.0351V14.1483H54.7391V10.8363H56.9231V14.1483H60.3551V15.9483H56.9231ZM75.0013 20.2203C75.0013 20.6363 74.9773 21.0763 74.9293 21.5403H64.4173C64.4973 22.8363 64.9373 23.8523 65.7373 24.5883C66.5533 25.3083 67.5373 25.6683 68.6893 25.6683C69.6333 25.6683 70.4173 25.4523 71.0413 25.0203C71.6813 24.5723 72.1293 23.9803 72.3853 23.2443H74.7373C74.3853 24.5083 73.6813 25.5403 72.6253 26.3403C71.5693 27.1243 70.2573 27.5163 68.6893 27.5163C67.4413 27.5163 66.3213 27.2363 65.3293 26.6763C64.3533 26.1163 63.5853 25.3243 63.0253 24.3003C62.4653 23.2603 62.1853 22.0603 62.1853 20.7003C62.1853 19.3403 62.4573 18.1483 63.0013 17.1243C63.5453 16.1003 64.3053 15.3163 65.2813 14.7723C66.2733 14.2123 67.4093 13.9323 68.6893 13.9323C69.9373 13.9323 71.0413 14.2043 72.0013 14.7483C72.9613 15.2923 73.6973 16.0443 74.2093 17.0043C74.7373 17.9483 75.0013 19.0203 75.0013 20.2203ZM72.7453 19.7643C72.7453 18.9323 72.5613 18.2203 72.1933 17.6283C71.8253 17.0203 71.3213 16.5643 70.6813 16.2603C70.0573 15.9403 69.3613 15.7803 68.5933 15.7803C67.4893 15.7803 66.5453 16.1323 65.7613 16.8363C64.9933 17.5403 64.5533 18.5163 64.4413 19.7643H72.7453ZM80.0681 16.2843C80.4521 15.5323 80.9961 14.9483 81.7001 14.5323C82.4201 14.1163 83.2921 13.9083 84.3161 13.9083V16.1643H83.7401C81.2921 16.1643 80.0681 17.4923 80.0681 20.1483V27.3003H77.8841V14.1483H80.0681V16.2843Z" fill="#1DA1F2"/>
</g>
<defs>
<clipPath id="clip0_2_184">
<rect width="24" height="24" fill="white" transform="translate(7 7.80029)"/>
</clipPath>
<clipPath id="clip1_2_184">
<rect width="1" height="1" fill="white" transform="translate(5 19.3003)"/>
</clipPath>
</defs>
</svg>
