<svg width="38" height="39" viewBox="0 0 38 39" fill="none" xmlns="http://www.w3.org/2000/svg">
<g clip-path="url(#clip0_2_198)">
<path d="M28.8 15.8011C28.8 15.8011 28.605 14.4231 28.005 13.8161C27.245 13.0191 26.392 13.0151 26.001 12.9691C23.202 12.7671 19.004 12.7671 19.004 12.7671H18.995C18.995 12.7671 14.797 12.7671 11.998 12.9691C11.608 13.0161 10.756 13.0201 9.995 13.8161C9.395 14.4231 9.2 15.8011 9.2 15.8011C9.2 15.8011 9 17.4201 9 19.0381V20.5551C9 22.1731 9.2 23.7921 9.2 23.7921C9.2 23.7921 9.395 25.1701 9.995 25.7771C10.756 26.5741 11.755 26.5481 12.2 26.6321C13.8 26.7851 19 26.8331 19 26.8331C19 26.8331 23.203 26.8271 26.001 26.6241C26.392 26.5771 27.244 26.5731 28.005 25.7771C28.605 25.1701 28.8 23.7921 28.8 23.7921C28.8 23.7921 29 22.1741 29 20.5551V19.0381C29 17.4201 28.8 15.8011 28.8 15.8011ZM16.935 22.3941L16.934 16.7741L22.338 19.5941L16.935 22.3941Z" fill="white"/>
</g>
<g clip-path="url(#clip1_2_198)">
<path d="M18.6769 10.5723L13.2289 20.9883V27.3003H11.0449V20.9883L5.57287 10.5723H7.99687L12.1249 19.0443L16.2529 10.5723H18.6769ZM26.7165 27.5163C25.4845 27.5163 24.3645 27.2363 23.3565 26.6763C22.3645 26.1163 21.5805 25.3243 21.0045 24.3003C20.4445 23.2603 20.1645 22.0603 20.1645 20.7003C20.1645 19.3563 20.4525 18.1723 21.0285 17.1483C21.6205 16.1083 22.4205 15.3163 23.4285 14.7723C24.4365 14.2123 25.5645 13.9323 26.8125 13.9323C28.0605 13.9323 29.1885 14.2123 30.1965 14.7723C31.2045 15.3163 31.9965 16.1003 32.5725 17.1243C33.1645 18.1483 33.4605 19.3403 33.4605 20.7003C33.4605 22.0603 33.1565 23.2603 32.5485 24.3003C31.9565 25.3243 31.1485 26.1163 30.1245 26.6763C29.1005 27.2363 27.9645 27.5163 26.7165 27.5163ZM26.7165 25.5963C27.5005 25.5963 28.2365 25.4123 28.9245 25.0443C29.6125 24.6763 30.1645 24.1243 30.5805 23.3883C31.0125 22.6523 31.2285 21.7563 31.2285 20.7003C31.2285 19.6443 31.0205 18.7483 30.6045 18.0123C30.1885 17.2763 29.6445 16.7323 28.9725 16.3803C28.3005 16.0123 27.5725 15.8283 26.7885 15.8283C25.9885 15.8283 25.2525 16.0123 24.5805 16.3803C23.9245 16.7323 23.3965 17.2763 22.9965 18.0123C22.5965 18.7483 22.3965 19.6443 22.3965 20.7003C22.3965 21.7723 22.5885 22.6763 22.9725 23.4123C23.3725 24.1483 23.9005 24.7003 24.5565 25.0683C25.2125 25.4203 25.9325 25.5963 26.7165 25.5963ZM47.9961 14.1483V27.3003H45.8121V25.3563C45.3961 26.0283 44.8121 26.5563 44.0601 26.9403C43.3241 27.3083 42.5081 27.4923 41.6121 27.4923C40.5881 27.4923 39.6681 27.2843 38.8521 26.8683C38.0361 26.4363 37.3881 25.7963 36.9081 24.9483C36.4441 24.1003 36.2121 23.0683 36.2121 21.8523V14.1483H38.3721V21.5643C38.3721 22.8603 38.7001 23.8603 39.3561 24.5643C40.0121 25.2523 40.9081 25.5963 42.0441 25.5963C43.2121 25.5963 44.1321 25.2363 44.8041 24.5163C45.4761 23.7963 45.8121 22.7483 45.8121 21.3723V14.1483H47.9961ZM61.9796 10.5723V12.3483H57.4196V27.3003H55.2356V12.3483H50.6516V10.5723H61.9796ZM76.332 14.1483V27.3003H74.148V25.3563C73.732 26.0283 73.148 26.5563 72.396 26.9403C71.66 27.3083 70.844 27.4923 69.948 27.4923C68.924 27.4923 68.004 27.2843 67.188 26.8683C66.372 26.4363 65.724 25.7963 65.244 24.9483C64.78 24.1003 64.548 23.0683 64.548 21.8523V14.1483H66.708V21.5643C66.708 22.8603 67.036 23.8603 67.692 24.5643C68.348 25.2523 69.244 25.5963 70.38 25.5963C71.548 25.5963 72.468 25.2363 73.14 24.5163C73.812 23.7963 74.148 22.7483 74.148 21.3723V14.1483H76.332ZM82.2036 16.5963C82.6516 15.8123 83.3076 15.1723 84.1716 14.6763C85.0356 14.1803 86.0196 13.9323 87.1236 13.9323C88.3076 13.9323 89.3716 14.2123 90.3156 14.7723C91.2596 15.3323 92.0036 16.1243 92.5476 17.1483C93.0916 18.1563 93.3636 19.3323 93.3636 20.6763C93.3636 22.0043 93.0916 23.1883 92.5476 24.2283C92.0036 25.2683 91.2516 26.0763 90.2916 26.6523C89.3476 27.2283 88.2916 27.5163 87.1236 27.5163C85.9876 27.5163 84.9876 27.2683 84.1236 26.7723C83.2756 26.2763 82.6356 25.6443 82.2036 24.8763V27.3003H80.0196V9.54029H82.2036V16.5963ZM91.1316 20.6763C91.1316 19.6843 90.9316 18.8203 90.5316 18.0843C90.1316 17.3483 89.5876 16.7883 88.8996 16.4043C88.2276 16.0203 87.4836 15.8283 86.6676 15.8283C85.8676 15.8283 85.1236 16.0283 84.4356 16.4283C83.7636 16.8123 83.2196 17.3803 82.8036 18.1323C82.4036 18.8683 82.2036 19.7243 82.2036 20.7003C82.2036 21.6923 82.4036 22.5643 82.8036 23.3163C83.2196 24.0523 83.7636 24.6203 84.4356 25.0203C85.1236 25.4043 85.8676 25.5963 86.6676 25.5963C87.4836 25.5963 88.2276 25.4043 88.8996 25.0203C89.5876 24.6203 90.1316 24.0523 90.5316 23.3163C90.9316 22.5643 91.1316 21.6843 91.1316 20.6763ZM108.238 20.2203C108.238 20.6363 108.214 21.0763 108.166 21.5403H97.6543C97.7343 22.8363 98.1743 23.8523 98.9743 24.5883C99.7903 25.3083 100.774 25.6683 101.926 25.6683C102.87 25.6683 103.654 25.4523 104.278 25.0203C104.918 24.5723 105.366 23.9803 105.622 23.2443H107.974C107.622 24.5083 106.918 25.5403 105.862 26.3403C104.806 27.1243 103.494 27.5163 101.926 27.5163C100.678 27.5163 99.5583 27.2363 98.5663 26.6763C97.5903 26.1163 96.8223 25.3243 96.2623 24.3003C95.7023 23.2603 95.4223 22.0603 95.4223 20.7003C95.4223 19.3403 95.6943 18.1483 96.2383 17.1243C96.7823 16.1003 97.5423 15.3163 98.5183 14.7723C99.5103 14.2123 100.646 13.9323 101.926 13.9323C103.174 13.9323 104.278 14.2043 105.238 14.7483C106.198 15.2923 106.934 16.0443 107.446 17.0043C107.974 17.9483 108.238 19.0203 108.238 20.2203ZM105.982 19.7643C105.982 18.9323 105.798 18.2203 105.43 17.6283C105.062 17.0203 104.558 16.5643 103.918 16.2603C103.294 15.9403 102.598 15.7803 101.83 15.7803C100.726 15.7803 99.7823 16.1323 98.9983 16.8363C98.2303 17.5403 97.7903 18.5163 97.6783 19.7643H105.982Z" fill="#FF0000"/>
</g>
<defs>
<clipPath id="clip0_2_198">
<rect width="24" height="24" fill="white" transform="translate(7 7.80029)"/>
</clipPath>
<clipPath id="clip1_2_198">
<rect width="1" height="1" fill="white" transform="translate(5 19.3003)"/>
</clipPath>
</defs>
</svg>
